<svg width="18" height="17" viewBox="0 0 18 17" fill="none" xmlns="http://www.w3.org/2000/svg">
<path d="M12.7497 11.8748C11.4447 13.1798 8.43799 12.0675 6.93499 10.5645C5.43199 9.06153 4.31974 6.05478 5.62474 4.74978C6.00274 4.37178 6.52324 4.32678 6.84124 4.34178C7.02499 4.35003 7.18399 4.45803 7.29124 4.60803L8.00524 5.60853C8.10832 5.75301 8.15683 5.92936 8.14214 6.10624C8.12744 6.28311 8.0505 6.44905 7.92499 6.57453L7.24924 7.25028C7.37374 7.62528 7.77424 8.52528 8.37424 9.12528C8.97424 9.72528 9.87424 10.1258 10.2492 10.2503L10.925 9.57528C11.0504 9.44966 11.2163 9.37257 11.3931 9.35774C11.57 9.34291 11.7464 9.39129 11.891 9.49428L12.8915 10.2083C13.0415 10.3155 13.1495 10.4745 13.1577 10.6583C13.1727 10.9763 13.1277 11.4968 12.7497 11.8748Z" stroke="white" stroke-width="1.08333" stroke-linejoin="round"/>
<path d="M9 16.375C13.3492 16.375 16.875 12.8492 16.875 8.5C16.875 4.15075 13.3492 0.625 9 0.625C4.65075 0.625 1.125 4.15075 1.125 8.5C1.125 9.934 1.50825 11.2795 2.17875 12.4375L1.51875 15.9813L5.0625 15.3212C6.25909 16.0136 7.61753 16.3772 9 16.375Z" stroke="white" stroke-width="1.08333" stroke-linejoin="round"/>
</svg>
