<svg width="33" height="33" viewBox="0 0 33 33" fill="none" xmlns="http://www.w3.org/2000/svg">
<path d="M7.95806 16.5001V28.4581L4.54194 31.8751L1.125 28.4581V16.5001C1.125 16.047 1.30496 15.6126 1.62528 15.2923C1.9456 14.9719 2.38005 14.792 2.83306 14.792H6.25C6.70301 14.792 7.13746 14.9719 7.45778 15.2923C7.7781 15.6126 7.95806 16.047 7.95806 16.5001Z" stroke="white" stroke-width="1.64" stroke-linecap="round" stroke-linejoin="round"/>
<path d="M31.8749 23.3331H28.458M31.8749 9.66694H28.458M31.8749 16.5H28.458M14.7919 31.875H28.458C28.9111 31.875 29.3456 31.6951 29.6661 31.3748C29.9865 31.0545 30.1667 30.62 30.1669 30.1669V2.83306C30.1669 2.60869 30.1227 2.38651 30.0368 2.17922C29.9509 1.97194 29.825 1.78361 29.6663 1.62499C29.5076 1.46637 29.3192 1.34057 29.1119 1.25478C28.9046 1.16899 28.6824 1.12489 28.458 1.125H9.66689C9.44251 1.12489 9.22032 1.16899 9.01299 1.25478C8.80566 1.34057 8.61727 1.46637 8.45858 1.62499C8.29988 1.78361 8.17399 1.97194 8.0881 2.17922C8.00221 2.38651 7.95801 2.60869 7.95801 2.83306V7.95806" stroke="#2486B8" stroke-width="1.64" stroke-linecap="round" stroke-linejoin="round"/>
</svg>
