<svg width="18" height="18" viewBox="0 0 18 18" fill="none" xmlns="http://www.w3.org/2000/svg">
<path fill-rule="evenodd" clip-rule="evenodd" d="M3.15 3.9L8.82 8.1525C8.87193 8.19145 8.93509 8.2125 9 8.2125C9.06491 8.2125 9.12807 8.19145 9.18 8.1525L14.85 3.9H3.15ZM15.6 4.4625L9.72 8.8725C9.51228 9.02829 9.25964 9.1125 9 9.1125C8.74036 9.1125 8.48772 9.02829 8.28 8.8725L2.4 4.4625V14.1H15.6V4.4625ZM2.25 3H15.75C15.9489 3 16.1397 3.07902 16.2803 3.21967C16.421 3.36032 16.5 3.55109 16.5 3.75V14.25C16.5 14.4489 16.421 14.6397 16.2803 14.7803C16.1397 14.921 15.9489 15 15.75 15H2.25C2.05109 15 1.86032 14.921 1.71967 14.7803C1.57902 14.6397 1.5 14.4489 1.5 14.25V3.75C1.5 3.55109 1.57902 3.36032 1.71967 3.21967C1.86032 3.07902 2.05109 3 2.25 3Z" fill="white"/>
</svg>
