<svg width="34" height="33" viewBox="0 0 34 33" fill="none" xmlns="http://www.w3.org/2000/svg">
<path d="M33.2942 16.3827C33.2942 7.32404 25.9702 -1.11208e-06 16.9115 -7.16111e-07C7.85285 -3.20144e-07 0.528809 7.32404 0.528809 16.3827C0.52881 25.4414 7.85285 32.7654 16.9115 32.7654C25.9702 32.7654 33.2942 25.4414 33.2942 16.3827ZM2.45619 16.3827C2.45619 8.3841 8.9129 1.92738 16.9115 1.92738C24.9101 1.92738 31.3669 8.3841 31.3669 16.3827C31.3669 24.3813 24.9101 30.8381 16.9115 30.8381C8.91291 30.8381 2.45619 24.3813 2.45619 16.3827Z" fill="white"/>
<path d="M18.5502 24.3811L10.5516 16.3825L18.5502 8.38383L17.2011 7.03467L7.85327 16.3825L17.2011 25.7302L18.5502 24.3811Z" fill="white"/>
<path d="M9.20166 15.4189L9.20166 17.3463L25.5844 17.3463L25.5844 15.4189L9.20166 15.4189Z" fill="white"/>
</svg>
