<svg width="24" height="24" viewBox="0 0 24 24" fill="none" xmlns="http://www.w3.org/2000/svg">
<path d="M12.0001 7.6875C11.1471 7.6875 10.3134 7.94042 9.60416 8.41429C8.89498 8.88815 8.34223 9.56167 8.01583 10.3497C7.68943 11.1377 7.60403 12.0048 7.77042 12.8413C7.93682 13.6779 8.34755 14.4463 8.95066 15.0494C9.55378 15.6525 10.3222 16.0632 11.1587 16.2296C11.9953 16.396 12.8624 16.3106 13.6504 15.9842C14.4384 15.6578 15.1119 15.1051 15.5858 14.3959C16.0596 13.6867 16.3126 12.8529 16.3126 12C16.3114 10.8566 15.8566 9.76041 15.0481 8.95192C14.2397 8.14342 13.1434 7.68869 12.0001 7.6875ZM12.0001 14.875C11.4314 14.875 10.8756 14.7064 10.4028 14.3905C9.93001 14.0746 9.56151 13.6256 9.34391 13.1002C9.12631 12.5749 9.06937 11.9968 9.1803 11.4391C9.29124 10.8814 9.56505 10.3691 9.96713 9.96707C10.3692 9.56499 10.8815 9.29117 11.4392 9.18024C11.9969 9.06931 12.5749 9.12624 13.1003 9.34385C13.6256 9.56145 14.0746 9.92994 14.3905 10.4027C14.7064 10.8755 14.8751 11.4314 14.8751 12C14.8751 12.7625 14.5722 13.4938 14.033 14.0329C13.4938 14.5721 12.7626 14.875 12.0001 14.875ZM16.3126 2.65625H7.68756C6.35363 2.65768 5.07474 3.18821 4.13151 4.13145C3.18827 5.07468 2.65774 6.35357 2.65631 7.6875V16.3125C2.65774 17.6464 3.18827 18.9253 4.13151 19.8686C5.07474 20.8118 6.35363 21.3423 7.68756 21.3438H16.3126C17.6465 21.3423 18.9254 20.8118 19.8686 19.8686C20.8118 18.9253 21.3424 17.6464 21.3438 16.3125V7.6875C21.3424 6.35357 20.8118 5.07468 19.8686 4.13145C18.9254 3.18821 17.6465 2.65768 16.3126 2.65625ZM19.9063 16.3125C19.9063 17.2656 19.5277 18.1797 18.8537 18.8537C18.1798 19.5276 17.2657 19.9062 16.3126 19.9062H7.68756C6.73444 19.9062 5.82035 19.5276 5.1464 18.8537C4.47244 18.1797 4.09381 17.2656 4.09381 16.3125V7.6875C4.09381 6.73438 4.47244 5.82029 5.1464 5.14634C5.82035 4.47238 6.73444 4.09375 7.68756 4.09375H16.3126C17.2657 4.09375 18.1798 4.47238 18.8537 5.14634C19.5277 5.82029 19.9063 6.73438 19.9063 7.6875V16.3125ZM17.7501 7.32812C17.7501 7.54136 17.6868 7.7498 17.5684 7.9271C17.4499 8.1044 17.2815 8.24258 17.0845 8.32418C16.8875 8.40578 16.6707 8.42713 16.4616 8.38553C16.2525 8.34393 16.0604 8.24125 15.9096 8.09047C15.7588 7.9397 15.6561 7.74759 15.6145 7.53846C15.5729 7.32932 15.5943 7.11255 15.6759 6.91554C15.7575 6.71854 15.8957 6.55016 16.073 6.4317C16.2503 6.31323 16.4587 6.25 16.6719 6.25C16.9579 6.25 17.2321 6.36359 17.4343 6.56578C17.6365 6.76796 17.7501 7.04219 17.7501 7.32812Z" fill="white"/>
</svg>
