<svg width="22" height="22" viewBox="0 0 22 22" fill="none" xmlns="http://www.w3.org/2000/svg">
<path d="M6.87507 8.24961H3.2084C3.08684 8.24961 2.97026 8.2979 2.88431 8.38385C2.79836 8.4698 2.75007 8.58638 2.75007 8.70794V19.7079C2.75007 19.8295 2.79836 19.9461 2.88431 20.032C2.97026 20.118 3.08684 20.1663 3.2084 20.1663H6.87507C6.99663 20.1663 7.1132 20.118 7.19916 20.032C7.28511 19.9461 7.3334 19.8295 7.3334 19.7079V8.70794C7.3334 8.58638 7.28511 8.4698 7.19916 8.38385C7.1132 8.2979 6.99663 8.24961 6.87507 8.24961ZM6.41673 19.2496H3.66673V9.16627H6.41673V19.2496ZM16.5001 8.24961C15.5055 8.24961 14.5384 8.57777 13.7501 9.18369V8.70794C13.7501 8.58638 13.7018 8.4698 13.6158 8.38385C13.5299 8.2979 13.4133 8.24961 13.2917 8.24961H9.62507C9.50351 8.24961 9.38693 8.2979 9.30098 8.38385C9.21502 8.4698 9.16673 8.58638 9.16673 8.70794V19.7079C9.16673 19.8295 9.21502 19.9461 9.30098 20.032C9.38693 20.118 9.50351 20.1663 9.62507 20.1663H13.2917C13.4133 20.1663 13.5299 20.118 13.6158 20.032C13.7018 19.9461 13.7501 19.8295 13.7501 19.7079V14.6663C13.7501 14.3016 13.8949 13.9519 14.1528 13.694C14.4107 13.4361 14.7604 13.2913 15.1251 13.2913C15.4897 13.2913 15.8395 13.4361 16.0973 13.694C16.3552 13.9519 16.5001 14.3016 16.5001 14.6663V19.7079C16.5001 19.8295 16.5484 19.9461 16.6343 20.032C16.7203 20.118 16.8368 20.1663 16.9584 20.1663H20.6251C20.7466 20.1663 20.8632 20.118 20.9492 20.032C21.0351 19.9461 21.0834 19.8295 21.0834 19.7079V12.8329C21.0819 11.6178 20.5986 10.4529 19.7394 9.59364C18.8801 8.73442 17.7152 8.25106 16.5001 8.24961ZM20.1667 19.2496H17.4167V14.6663C17.4167 14.0585 17.1753 13.4756 16.7455 13.0458C16.3158 12.616 15.7329 12.3746 15.1251 12.3746C14.5173 12.3746 13.9344 12.616 13.5046 13.0458C13.0748 13.4756 12.8334 14.0585 12.8334 14.6663V19.2496H10.0834V9.16627H12.8334V10.269C12.8334 10.364 12.8628 10.4565 12.9177 10.534C12.9726 10.6115 13.0501 10.67 13.1397 10.7015C13.2292 10.733 13.3263 10.7359 13.4176 10.7098C13.5089 10.6838 13.5898 10.63 13.6492 10.5559C14.12 9.95926 14.7652 9.52435 15.4949 9.31185C16.2246 9.09936 17.0024 9.11988 17.7199 9.37054C18.4374 9.62121 19.0587 10.0895 19.4974 10.7102C19.936 11.3309 20.17 12.0729 20.1667 12.8329V19.2496ZM5.37907 1.83478C5.27134 1.82781 5.16329 1.8272 5.05548 1.83294C4.71244 1.8096 4.36825 1.85694 4.04425 1.97204C3.72024 2.08713 3.42332 2.26752 3.17187 2.50204C2.92042 2.73656 2.71981 3.02021 2.58244 3.33542C2.44508 3.65063 2.3739 3.99069 2.37332 4.33453C2.37047 4.67477 2.43755 5.01198 2.5704 5.32523C2.70325 5.63848 2.89904 5.9211 3.14562 6.15556C3.3922 6.39002 3.68432 6.57133 4.00387 6.68824C4.32341 6.80515 4.66356 6.85517 5.00323 6.83519H5.0289C5.35723 6.85818 5.68688 6.81628 5.99902 6.71188C6.31116 6.60747 6.59967 6.44261 6.8481 6.2267C7.09652 6.01079 7.29998 5.74807 7.44687 5.45353C7.59376 5.15899 7.6812 4.8384 7.70419 4.51007C7.72719 4.18173 7.68528 3.85209 7.58088 3.53995C7.47647 3.22781 7.31161 2.9393 7.0957 2.69087C6.87979 2.44245 6.61707 2.23898 6.32253 2.09209C6.02799 1.94521 5.7074 1.85777 5.37907 1.83478ZM5.34698 5.92128C5.24126 5.93105 5.13523 5.93014 5.0289 5.91852H5.00323C4.78262 5.93511 4.56097 5.90551 4.35244 5.83162C4.1439 5.75772 3.95307 5.64116 3.79212 5.48936C3.63117 5.33757 3.50364 5.15388 3.41767 4.95003C3.3317 4.74618 3.28918 4.52664 3.29283 4.30543C3.29647 4.08423 3.34621 3.86621 3.43885 3.6653C3.53149 3.4644 3.66501 3.28501 3.83088 3.13861C3.99675 2.9922 4.19132 2.88199 4.40217 2.81502C4.61303 2.74804 4.83554 2.72576 5.05548 2.74961C5.47607 2.71095 5.89479 2.84096 6.21953 3.11103C6.54426 3.3811 6.74841 3.7691 6.78707 4.18969C6.82572 4.61028 6.69572 5.029 6.42565 5.35373C6.15558 5.67847 5.76757 5.88262 5.34698 5.92128Z" fill="white"/>
</svg>
