<svg width="18" height="18" viewBox="0 0 18 18" fill="none" xmlns="http://www.w3.org/2000/svg">
<path fill-rule="evenodd" clip-rule="evenodd" d="M9.0001 10.1933C9.63641 10.1933 10.2467 9.94064 10.6967 9.49081C11.1468 9.04098 11.3998 8.43084 11.4001 7.79453C11.4001 7.15801 11.1472 6.54756 10.6972 6.09748C10.2471 5.64739 9.63662 5.39453 9.0001 5.39453C8.36358 5.39453 7.75313 5.64739 7.30304 6.09748C6.85295 6.54756 6.6001 7.15801 6.6001 7.79453C6.60042 8.43084 6.85341 9.04098 7.30347 9.49081C7.75352 9.94064 8.36379 10.1933 9.0001 10.1933Z" stroke="white" stroke-width="1.2" stroke-linecap="square"/>
<path fill-rule="evenodd" clip-rule="evenodd" d="M16.2 7.79481C16.2 13.7912 10.2 17.3888 9.00005 17.3888C7.80005 17.3888 1.80005 13.7912 1.80005 7.79481C1.80132 5.88608 2.56045 4.05597 3.91058 2.70674C5.2607 1.35752 7.09132 0.599609 9.00005 0.599609C12.9756 0.599609 16.2 3.82161 16.2 7.79481Z" stroke="white" stroke-width="1.2" stroke-linecap="square"/>
</svg>
