<svg width="41" height="41" viewBox="0 0 41 41" fill="none" xmlns="http://www.w3.org/2000/svg">
<path d="M35.875 10.25L25.625 20.5M23.9169 29.0419H11.9581M18.7919 22.2081H11.9581" stroke="white" stroke-width="1.64" stroke-linecap="round" stroke-linejoin="round"/>
<path d="M26.3942 11.1045H26.5647M34.9353 19.6456H35.1067" stroke="white" stroke-width="2.46" stroke-linecap="round" stroke-linejoin="round"/>
<path d="M30.75 27.3331V34.1669C30.75 34.6199 30.57 35.0544 30.2497 35.3747C29.9294 35.695 29.4949 35.875 29.0419 35.875H6.83306C6.38005 35.875 5.9456 35.695 5.62528 35.3747C5.30496 35.0544 5.125 34.6199 5.125 34.1669V6.83306C5.125 6.38005 5.30496 5.9456 5.62528 5.62528C5.9456 5.30496 6.38005 5.125 6.83306 5.125H18.7919" stroke="#2486B8" stroke-width="1.64" stroke-linecap="round" stroke-linejoin="round"/>
</svg>
