<svg width="954" height="632" viewBox="0 0 954 632" fill="none" xmlns="http://www.w3.org/2000/svg">
<g clip-path="url(#clip0_169_438)">
<path d="M1029.15 446.277H875.026L765.346 173.198L823.03 35.1693C828.067 23.0969 845.209 23.0165 850.409 35.0085L1029.15 446.357V446.277Z" fill="#10648F"/>
<path d="M843.509 671.166H696.348L517.236 220.302C509.41 200.506 509.33 178.528 517.075 158.732L567.339 30.5029C571.373 20.2413 585.815 20.2413 589.849 30.5029L843.509 671.166Z" fill="#10648F"/>
<path d="M508.508 512.53L449.945 643.829C445.221 654.466 429.909 654.141 425.592 643.26L172.609 0.00012207H336.079L509.974 458.613C516.571 476.071 516.083 495.478 508.426 512.53H508.508Z" fill="#10648F"/>
<path d="M253.949 490.779L185.463 644.787C181.334 654.131 167.896 653.809 164.172 644.304L-0.000320435 224.808H159.477L254.03 490.779H253.949Z" fill="#10648F"/>
</g>
<defs>
<clipPath id="clip0_169_438">
<rect width="954" height="632" fill="white"/>
</clipPath>
</defs>
</svg>
