<svg width="41" height="41" viewBox="0 0 41 41" fill="none" xmlns="http://www.w3.org/2000/svg">
<path d="M29.0408 28.1875C26.0683 31.16 19.2196 28.6265 15.7961 25.203C12.3726 21.7795 9.83914 14.9308 12.8116 11.9583C13.6726 11.0973 14.8582 10.9948 15.5826 11.029C16.0011 11.0478 16.3633 11.2938 16.6076 11.6354L18.2339 13.9143C18.4687 14.2434 18.5792 14.6451 18.5457 15.048C18.5123 15.4509 18.337 15.8288 18.0511 16.1147L16.5119 17.6539C16.7955 18.5081 17.7077 20.5581 19.0744 21.9247C20.4411 23.2914 22.4911 24.2036 23.3452 24.4872L24.8844 22.9497C25.1701 22.6636 25.5479 22.488 25.9508 22.4542C26.3537 22.4204 26.7555 22.5306 27.0848 22.7652L29.3637 24.3916C29.7053 24.6358 29.9514 24.998 29.9701 25.4166C30.0043 26.1409 29.9018 27.3265 29.0408 28.1875Z" stroke="white" stroke-width="1.08333" stroke-linejoin="round"/>
<path d="M20.5 38.4375C30.4066 38.4375 38.4375 30.4066 38.4375 20.5C38.4375 10.5934 30.4066 2.5625 20.5 2.5625C10.5934 2.5625 2.5625 10.5934 2.5625 20.5C2.5625 23.7663 3.43546 26.8311 4.96271 29.4688L3.45938 37.5406L11.5313 36.0373C14.2568 37.6144 17.3511 38.4424 20.5 38.4375Z" stroke="#2486B8" stroke-width="1.08333" stroke-linejoin="round"/>
</svg>
