<svg width="41" height="41" viewBox="0 0 41 41" fill="none" xmlns="http://www.w3.org/2000/svg">
<path fill-rule="evenodd" clip-rule="evenodd" d="M20.4999 23.2197C21.9492 23.2197 23.3393 22.6441 24.3644 21.6195C25.3895 20.5949 25.9658 19.2051 25.9665 17.7557C25.9665 16.3059 25.3906 14.9154 24.3654 13.8902C23.3402 12.865 21.9497 12.2891 20.4999 12.2891C19.05 12.2891 17.6596 12.865 16.6344 13.8902C15.6092 14.9154 15.0332 16.3059 15.0332 17.7557C15.0339 19.2051 15.6102 20.5949 16.6353 21.6195C17.6604 22.6441 19.0505 23.2197 20.4999 23.2197Z" stroke="white" stroke-width="1.2" stroke-linecap="square"/>
<path fill-rule="evenodd" clip-rule="evenodd" d="M36.8996 17.7558C36.8996 31.4142 23.2329 39.6088 20.4996 39.6088C17.7663 39.6088 4.09961 31.4142 4.09961 17.7558C4.10251 13.4081 5.83164 9.23952 8.90692 6.16628C11.9822 3.09305 16.152 1.3667 20.4996 1.3667C29.5551 1.3667 36.8996 8.7057 36.8996 17.7558Z" stroke="#2486B8" stroke-width="1.2" stroke-linecap="square"/>
</svg>
