<svg width="33" height="29" viewBox="0 0 33 29" fill="none" xmlns="http://www.w3.org/2000/svg">
<path d="M9.66693 16.2081C16.5 16.2081 19.4553 11.4595 21.625 7.66699" stroke="white" stroke-width="1.64" stroke-linecap="round" stroke-linejoin="round"/>
<path d="M16.5 7.66699H21.625L23.3331 12.792" stroke="white" stroke-width="1.64" stroke-linecap="round" stroke-linejoin="round"/>
<path d="M19.2331 23.0419L23.3331 28.1669M1.125 0.833008H31.875M13.7669 23.0419L9.66694 28.1669M28.4581 23.0419H4.54194C4.3175 23.042 4.09523 22.9979 3.88785 22.912C3.68047 22.8262 3.49204 22.7003 3.33334 22.5416C3.17463 22.3829 3.04876 22.1945 2.96292 21.9871C2.87708 21.7797 2.83295 21.5575 2.83306 21.333V0.833008H30.1669V21.333C30.167 21.5575 30.1229 21.7797 30.0371 21.9871C29.9512 22.1945 29.8254 22.3829 29.6667 22.5416C29.508 22.7003 29.3195 22.8262 29.1121 22.912C28.9048 22.9979 28.6825 23.042 28.4581 23.0419Z" stroke="#2486B8" stroke-width="1.64" stroke-linecap="round" stroke-linejoin="round"/>
</svg>
