<svg width="18" height="18" viewBox="0 0 18 18" fill="none" xmlns="http://www.w3.org/2000/svg">
<g clip-path="url(#clip0_310_171)">
<path d="M12.7497 12.3753C11.4447 13.6803 8.43799 12.568 6.93499 11.065C5.43199 9.56202 4.31974 6.55527 5.62474 5.25027C6.00274 4.87227 6.52324 4.82727 6.84124 4.84227C7.02499 4.85052 7.18399 4.95852 7.29124 5.10852L8.00524 6.10902C8.10832 6.2535 8.15683 6.42985 8.14214 6.60673C8.12744 6.7836 8.0505 6.94953 7.92499 7.07502L7.24924 7.75077C7.37374 8.12577 7.77424 9.02577 8.37424 9.62577C8.97424 10.2258 9.87424 10.6263 10.2492 10.7508L10.925 10.0758C11.0504 9.95014 11.2163 9.87306 11.3931 9.85823C11.57 9.8434 11.7464 9.89178 11.891 9.99477L12.8915 10.7088C13.0415 10.816 13.1495 10.975 13.1577 11.1588C13.1727 11.4768 13.1277 11.9973 12.7497 12.3753Z" stroke="white" stroke-width="1.08333" stroke-linejoin="round"/>
<path d="M9 16.875C13.3492 16.875 16.875 13.3492 16.875 9C16.875 4.65075 13.3492 1.125 9 1.125C4.65075 1.125 1.125 4.65075 1.125 9C1.125 10.434 1.50825 11.7795 2.17875 12.9375L1.51875 16.4813L5.0625 15.8212C6.25909 16.5136 7.61753 16.8772 9 16.875Z" stroke="white" stroke-width="1.08333" stroke-linejoin="round"/>
</g>
<defs>
<clipPath id="clip0_310_171">
<rect width="18" height="18" fill="white"/>
</clipPath>
</defs>
</svg>
