<svg width="1255" height="428" viewBox="0 0 1255 428" fill="none" xmlns="http://www.w3.org/2000/svg">
<g clip-path="url(#clip0_77_968)">
<path d="M0 -8.21425H150.604L257.781 258.633L201.414 393.512C196.492 405.309 179.74 405.388 174.659 393.669L0 -8.29297V-8.21425Z" fill="#13395E"/>
<path d="M181.632 -228H325.415L500.415 212.986C508.061 232.348 508.14 253.844 500.572 273.206L451.462 398.627C447.521 408.663 433.41 408.663 429.469 398.627L181.632 -228Z" fill="#13395E"/>
<path d="M509.013 -72.7583L566.306 -201.042C570.928 -211.435 585.909 -211.117 590.132 -200.486L837.633 428H677.706L507.579 -20.0803C501.124 -37.1371 501.602 -56.0981 509.093 -72.7583H509.013Z" fill="#2486B8"/>
<path d="M757.819 -51.5306L824.792 -201.98C828.83 -211.107 841.971 -210.792 845.613 -201.507L1006.16 208.293H850.204L757.74 -51.5306H757.819Z" fill="#2486B8"/>
</g>
<defs>
<clipPath id="clip0_77_968">
<rect width="1255" height="428" fill="white"/>
</clipPath>
</defs>
</svg>
