<svg width="1440" height="670" viewBox="0 0 1440 670" fill="none" xmlns="http://www.w3.org/2000/svg">
<g clip-path="url(#clip0_169_507)">
<rect width="1440" height="670" fill="#0B2742"/>
<path d="M329.545 200.062H517.341L650.985 532.808L580.698 700.995C574.56 715.706 553.672 715.804 547.336 701.191L329.545 199.964V200.062Z" fill="#13395E"/>
<path d="M556.031 -74H735.322L953.538 475.888C963.072 500.031 963.17 526.836 953.734 550.98L892.496 707.373C887.582 719.888 869.987 719.888 865.072 707.373L556.031 -74Z" fill="#13395E"/>
<path d="M964.259 119.579L1035.7 -40.3838C1041.46 -53.3431 1060.14 -52.9474 1065.41 -39.6913L1374.03 744H1174.61L962.47 185.266C954.422 163.997 955.018 140.354 964.358 119.579H964.259Z" fill="#10648F"/>
<path d="M1274.51 146.049L1358.02 -41.5531C1363.05 -52.9348 1379.44 -52.5424 1383.98 -40.9644L1584.18 470.036H1389.71L1274.41 146.049H1274.51Z" fill="#10648F"/>
</g>
<defs>
<clipPath id="clip0_169_507">
<rect width="1440" height="670" fill="white"/>
</clipPath>
</defs>
</svg>
