<svg width="143" height="51" viewBox="0 0 143 51" fill="none" xmlns="http://www.w3.org/2000/svg">
<path d="M94.8368 43.4393C94.4841 43.2494 94.2128 42.9826 94.0183 42.6435C93.8284 42.2998 93.7289 41.9064 93.7289 41.4632C93.7289 41.02 93.8284 40.6221 94.0228 40.2784C94.2173 39.9347 94.4931 39.6679 94.8413 39.4825C95.1895 39.2926 95.592 39.2021 96.0397 39.2021C96.6773 39.2021 97.229 39.4282 97.6857 39.8759L97.0617 40.5C96.7858 40.2377 96.4557 40.102 96.0668 40.102C95.809 40.102 95.5784 40.1563 95.3749 40.2739C95.1714 40.3915 95.0222 40.5452 94.9092 40.7532C94.8006 40.9612 94.7464 41.1964 94.7464 41.4632C94.7464 41.73 94.8006 41.9697 94.9092 42.1732C95.0177 42.3812 95.1714 42.5394 95.3749 42.6525C95.5784 42.7655 95.8045 42.8243 96.0668 42.8243C96.2748 42.8243 96.4693 42.7882 96.6592 42.7113C96.8491 42.6389 97.0119 42.5304 97.1521 42.3902L97.7445 43.0504C97.2787 43.4981 96.7135 43.7242 96.0578 43.7242C95.592 43.7242 95.1805 43.6293 94.8323 43.4393H94.8368Z" fill="white"/>
<path d="M99.2008 43.4483C98.8481 43.2584 98.5768 42.9961 98.3823 42.6524C98.1924 42.3087 98.0929 41.9108 98.0929 41.4586C98.0929 41.0064 98.1879 40.6084 98.3823 40.2647C98.5722 39.9211 98.8481 39.6588 99.2008 39.4689C99.5535 39.2789 99.9605 39.1885 100.426 39.1885C100.892 39.1885 101.304 39.2835 101.656 39.4689C102.009 39.6588 102.28 39.9211 102.475 40.2647C102.665 40.6084 102.764 41.0064 102.764 41.4586C102.764 41.9108 102.669 42.3087 102.475 42.6524C102.285 42.9961 102.009 43.2584 101.656 43.4483C101.304 43.6382 100.892 43.7287 100.426 43.7287C99.9605 43.7287 99.549 43.6337 99.2008 43.4483ZM101.118 42.6569C101.317 42.5439 101.471 42.3856 101.584 42.1776C101.692 41.9696 101.747 41.7344 101.747 41.4586C101.747 41.1827 101.692 40.9476 101.584 40.7396C101.475 40.5315 101.322 40.3733 101.118 40.2602C100.915 40.1472 100.689 40.0884 100.426 40.0884C100.164 40.0884 99.9379 40.1426 99.7389 40.2602C99.54 40.3733 99.3862 40.5315 99.2777 40.7396C99.1692 40.9476 99.1149 41.1872 99.1149 41.4586C99.1149 41.7299 99.1692 41.9696 99.2777 42.1776C99.3862 42.3856 99.54 42.5439 99.7389 42.6569C99.9379 42.77 100.164 42.8288 100.426 42.8288C100.689 42.8288 100.915 42.7745 101.118 42.6569Z" fill="white"/>
<path d="M106.436 39.2969H107.444V43.629H106.535L104.573 40.952L104.586 42.1187V43.629H103.578V39.2969H104.487L106.449 41.9875L106.436 40.8299V39.2969Z" fill="white"/>
<path d="M109.086 43.5662C108.761 43.4577 108.476 43.3085 108.236 43.114L108.761 42.3769C109.145 42.6799 109.593 42.8291 110.104 42.8291C110.357 42.8291 110.561 42.7839 110.714 42.698C110.868 42.6121 110.94 42.4945 110.94 42.3453C110.94 42.2051 110.868 42.0965 110.728 42.0197C110.588 41.9428 110.366 41.884 110.059 41.8524C109.471 41.7845 109.037 41.6489 108.761 41.4363C108.485 41.2283 108.349 40.9253 108.349 40.5319C108.349 40.2696 108.422 40.0345 108.571 39.831C108.72 39.6275 108.928 39.4737 109.195 39.3607C109.462 39.2476 109.774 39.1934 110.122 39.1934C110.425 39.1934 110.719 39.2386 111.004 39.3245C111.289 39.4104 111.542 39.5325 111.763 39.6908L111.289 40.4008C110.949 40.1656 110.579 40.048 110.167 40.048C109.914 40.048 109.715 40.0887 109.566 40.1701C109.416 40.2515 109.34 40.3646 109.34 40.5048C109.34 40.6449 109.403 40.7444 109.534 40.8213C109.665 40.8937 109.882 40.9525 110.185 40.9886C110.769 41.0565 111.207 41.2012 111.497 41.4227C111.786 41.6489 111.931 41.9564 111.931 42.3453C111.931 42.6166 111.854 42.8563 111.7 43.0643C111.546 43.2723 111.334 43.4351 111.058 43.5481C110.782 43.6612 110.466 43.72 110.104 43.72C109.742 43.72 109.407 43.6657 109.082 43.5572L109.086 43.5662Z" fill="white"/>
<path d="M113.156 43.1994C112.812 42.8558 112.641 42.3719 112.641 41.7569V39.2969H113.653V41.7569C113.653 42.087 113.735 42.3448 113.902 42.5347C114.069 42.7246 114.305 42.8196 114.603 42.8196C114.902 42.8196 115.128 42.7246 115.295 42.5347C115.462 42.3448 115.548 42.087 115.548 41.7569V39.2969H116.561V41.7569C116.561 42.3764 116.389 42.8558 116.05 43.1994C115.706 43.5431 115.227 43.715 114.603 43.715C113.979 43.715 113.495 43.5431 113.152 43.1994H113.156Z" fill="white"/>
<path d="M117.569 39.2975H118.582V42.7117H120.761V43.6251H117.569V39.293V39.2975Z" fill="white"/>
<path d="M124.198 39.2969V40.1832H122.873V43.629H121.86V40.1832H120.544V39.2969H124.198Z" fill="white"/>
<path d="M125.663 43.4483C125.311 43.2584 125.039 42.9961 124.845 42.6524C124.655 42.3087 124.556 41.9108 124.556 41.4586C124.556 41.0064 124.65 40.6084 124.845 40.2647C125.035 39.9211 125.311 39.6588 125.663 39.4689C126.016 39.2789 126.423 39.1885 126.889 39.1885C127.355 39.1885 127.766 39.2835 128.119 39.4689C128.472 39.6588 128.743 39.9211 128.937 40.2647C129.127 40.6084 129.227 41.0064 129.227 41.4586C129.227 41.9108 129.132 42.3087 128.937 42.6524C128.747 42.9961 128.472 43.2584 128.119 43.4483C127.766 43.6382 127.355 43.7287 126.889 43.7287C126.423 43.7287 126.012 43.6337 125.663 43.4483ZM127.581 42.6569C127.78 42.5439 127.934 42.3856 128.047 42.1776C128.155 41.9696 128.209 41.7344 128.209 41.4586C128.209 41.1827 128.155 40.9476 128.047 40.7396C127.938 40.5315 127.784 40.3733 127.581 40.2602C127.377 40.1472 127.151 40.0884 126.889 40.0884C126.627 40.0884 126.401 40.1426 126.202 40.2602C126.003 40.3733 125.849 40.5315 125.74 40.7396C125.632 40.9476 125.578 41.1872 125.578 41.4586C125.578 41.7299 125.632 41.9696 125.74 42.1776C125.849 42.3856 126.003 42.5439 126.202 42.6569C126.401 42.77 126.627 42.8288 126.889 42.8288C127.151 42.8288 127.377 42.7745 127.581 42.6569Z" fill="white"/>
<path d="M131.643 42.1962H131.055V43.6251H130.042V39.293H132.149C132.461 39.293 132.737 39.3518 132.972 39.4738C133.207 39.5959 133.388 39.7678 133.515 39.9894C133.641 40.211 133.705 40.4687 133.705 40.7581C133.705 41.0882 133.619 41.3686 133.447 41.6038C133.275 41.8389 133.031 42.0062 132.719 42.1057L133.944 43.6206H132.737L131.638 42.1916L131.643 42.1962ZM132.529 40.324C132.411 40.2155 132.244 40.1612 132.031 40.1612H131.05V41.3777H132.031C132.249 41.3777 132.416 41.3234 132.533 41.2194C132.646 41.1154 132.705 40.9661 132.705 40.7717C132.705 40.5772 132.646 40.428 132.529 40.3195V40.324Z" fill="white"/>
<path d="M134.64 39.2969H135.653V43.629H134.64V39.2969Z" fill="white"/>
<path d="M140.071 43.6251L139.75 42.8473H137.616L137.295 43.6251H136.214L138.154 39.293H139.235L141.166 43.6251H140.071ZM138.692 40.2652L137.982 41.9746H139.393L138.692 40.2652Z" fill="white"/>
<path d="M95.5914 50.7108C95.2387 50.5209 94.9674 50.2541 94.7729 49.9149C94.583 49.5713 94.4835 49.1778 94.4835 48.7347C94.4835 48.2915 94.583 47.8936 94.7775 47.5499C94.9719 47.2062 95.2478 46.9394 95.596 46.754C95.9442 46.5641 96.3466 46.4736 96.7943 46.4736C97.4319 46.4736 97.9836 46.6997 98.4404 47.1474L97.8163 47.7715C97.5405 47.5092 97.2103 47.3735 96.8214 47.3735C96.5637 47.3735 96.3331 47.4278 96.1296 47.5454C95.9261 47.6629 95.7768 47.8167 95.6638 48.0247C95.5553 48.2327 95.501 48.4679 95.501 48.7347C95.501 49.0015 95.5553 49.2412 95.6638 49.4447C95.7723 49.6527 95.9261 49.8109 96.1296 49.924C96.3331 50.037 96.5592 50.0958 96.8214 50.0958C97.0295 50.0958 97.2239 50.0597 97.4138 49.9828C97.6038 49.9104 97.7666 49.8019 97.9067 49.6617L98.4991 50.3219C98.0334 50.7696 97.4681 50.9957 96.8124 50.9957C96.3466 50.9957 95.9351 50.9008 95.5869 50.7108H95.5914Z" fill="white"/>
<path d="M99.9555 50.7198C99.6027 50.5298 99.3314 50.2676 99.137 49.9239C98.947 49.5802 98.8475 49.1823 98.8475 48.73C98.8475 48.2778 98.9425 47.8799 99.137 47.5362C99.3269 47.1925 99.6027 46.9303 99.9555 46.7403C100.308 46.5504 100.715 46.46 101.181 46.46C101.647 46.46 102.058 46.5549 102.411 46.7403C102.764 46.9303 103.035 47.1925 103.229 47.5362C103.419 47.8799 103.519 48.2778 103.519 48.73C103.519 49.1823 103.424 49.5802 103.229 49.9239C103.04 50.2676 102.764 50.5298 102.411 50.7198C102.058 50.9097 101.647 51.0001 101.181 51.0001C100.715 51.0001 100.304 50.9052 99.9555 50.7198ZM101.873 49.9284C102.072 49.8153 102.226 49.6571 102.339 49.4491C102.447 49.241 102.501 49.0059 102.501 48.73C102.501 48.4542 102.447 48.2191 102.339 48.011C102.23 47.803 102.076 47.6447 101.873 47.5317C101.669 47.4186 101.443 47.3599 101.181 47.3599C100.919 47.3599 100.693 47.4141 100.494 47.5317C100.295 47.6447 100.141 47.803 100.032 48.011C99.9238 48.2191 99.8695 48.4587 99.8695 48.73C99.8695 49.0014 99.9238 49.241 100.032 49.4491C100.141 49.6571 100.295 49.8153 100.494 49.9284C100.693 50.0414 100.919 50.1002 101.181 50.1002C101.443 50.1002 101.669 50.046 101.873 49.9284Z" fill="white"/>
<path d="M105.935 49.4667H105.347V50.8956H104.334V46.5635H106.441C106.753 46.5635 107.029 46.6223 107.264 46.7444C107.499 46.8665 107.68 47.0383 107.807 47.2599C107.933 47.4815 107.997 47.7392 107.997 48.0286C107.997 48.3587 107.911 48.6391 107.739 48.8743C107.567 49.1094 107.323 49.2767 107.011 49.3762L108.236 50.8911H107.029L105.93 49.4621L105.935 49.4667ZM106.821 47.5945C106.703 47.486 106.536 47.4317 106.323 47.4317H105.342V48.6482H106.323C106.541 48.6482 106.708 48.5939 106.825 48.4899C106.938 48.3859 106.997 48.2366 106.997 48.0422C106.997 47.8477 106.938 47.6985 106.821 47.59V47.5945Z" fill="white"/>
<path d="M111.881 46.7538C112.129 46.8804 112.324 47.0613 112.459 47.2964C112.595 47.5316 112.663 47.8074 112.663 48.1194C112.663 48.4315 112.595 48.7073 112.459 48.9425C112.324 49.1776 112.129 49.3585 111.881 49.4851C111.632 49.6117 111.338 49.675 111.003 49.675H109.945V50.9005H108.932V46.5684H111.003C111.338 46.5684 111.627 46.6317 111.881 46.7583V46.7538ZM111.465 48.6078C111.591 48.4903 111.655 48.3275 111.655 48.124C111.655 47.9205 111.591 47.7622 111.465 47.6401C111.338 47.5225 111.171 47.4592 110.954 47.4592H109.941V48.7842H110.954C111.166 48.7842 111.338 48.7254 111.465 48.6033V48.6078Z" fill="white"/>
<path d="M114.232 50.7198C113.879 50.5298 113.608 50.2676 113.413 49.9239C113.224 49.5802 113.124 49.1823 113.124 48.73C113.124 48.2778 113.219 47.8799 113.413 47.5362C113.603 47.1925 113.879 46.9303 114.232 46.7403C114.585 46.5504 114.992 46.46 115.457 46.46C115.923 46.46 116.335 46.5549 116.687 46.7403C117.04 46.9303 117.311 47.1925 117.506 47.5362C117.696 47.8799 117.795 48.2778 117.795 48.73C117.795 49.1823 117.7 49.5802 117.506 49.9239C117.316 50.2676 117.04 50.5298 116.687 50.7198C116.335 50.9097 115.923 51.0001 115.457 51.0001C114.992 51.0001 114.58 50.9052 114.232 50.7198ZM116.149 49.9284C116.348 49.8153 116.502 49.6571 116.615 49.4491C116.724 49.241 116.778 49.0059 116.778 48.73C116.778 48.4542 116.724 48.2191 116.615 48.011C116.507 47.803 116.353 47.6447 116.149 47.5317C115.946 47.4186 115.72 47.3599 115.457 47.3599C115.195 47.3599 114.969 47.4141 114.77 47.5317C114.571 47.6447 114.417 47.803 114.309 48.011C114.2 48.2191 114.146 48.4587 114.146 48.73C114.146 49.0014 114.2 49.241 114.309 49.4491C114.417 49.6571 114.571 49.8153 114.77 49.9284C114.969 50.0414 115.195 50.1002 115.457 50.1002C115.72 50.1002 115.946 50.046 116.149 49.9284Z" fill="white"/>
<path d="M120.21 49.4667H119.622V50.8956H118.609V46.5635H120.716C121.028 46.5635 121.304 46.6223 121.539 46.7444C121.774 46.8665 121.955 47.0383 122.082 47.2599C122.209 47.4815 122.272 47.7392 122.272 48.0286C122.272 48.3587 122.186 48.6391 122.014 48.8743C121.842 49.1094 121.598 49.2767 121.286 49.3762L122.512 50.8911H121.304L120.205 49.4621L120.21 49.4667ZM121.096 47.5945C120.979 47.486 120.811 47.4317 120.599 47.4317H119.617V48.6482H120.599C120.816 48.6482 120.983 48.5939 121.101 48.4899C121.214 48.3859 121.273 48.2366 121.273 48.0422C121.273 47.8477 121.214 47.6985 121.096 47.59V47.5945Z" fill="white"/>
<path d="M126.559 50.8956L126.238 50.1178H124.104L123.783 50.8956H122.702L124.642 46.5635H125.723L127.654 50.8956H126.559ZM125.176 47.5357L124.466 49.2451H125.877L125.176 47.5357Z" fill="white"/>
<path d="M131.09 46.5635V47.4498H129.765V50.8956H128.752V47.4498H127.436V46.5635H131.09Z" fill="white"/>
<path d="M131.778 46.5635H132.791V50.8956H131.778V46.5635Z" fill="white"/>
<path d="M136.874 46.5635H137.996L136.214 50.8956H135.142L133.361 46.5635H134.482L135.065 48.0332L135.676 49.7154L136.3 48.0332L136.874 46.5635Z" fill="white"/>
<path d="M141.446 50.8956L141.125 50.1178H138.991L138.67 50.8956H137.589L139.529 46.5635H140.61L142.541 50.8956H141.446ZM140.067 47.5357L139.357 49.2451H140.768L140.067 47.5357Z" fill="white"/>
<path d="M0 12.5397H8.57841L14.6832 27.8831L11.4725 35.6385C11.1922 36.3168 10.238 36.3213 9.9486 35.6476L0 12.5352V12.5397Z" fill="white"/>
<path d="M10.3923 0H18.6406L28.6797 25.2333C29.1183 26.3412 29.1228 27.5712 28.6887 28.6791L25.8714 35.8557C25.6453 36.43 24.8359 36.43 24.6098 35.8557L10.3923 0Z" fill="white"/>
<path d="M29.2037 8.90808L32.455 1.59586C32.7173 1.00346 33.5675 1.02155 33.8072 1.62751L47.8528 37.4515H38.7769L29.1223 11.9108C28.756 10.9385 28.7831 9.85772 29.2082 8.90808H29.2037Z" fill="white"/>
<path d="M43.3946 10.0619L47.2203 1.41566C47.451 0.891093 48.2016 0.90918 48.4097 1.44279L57.5805 24.9938H48.6719L43.3901 10.0619H43.3946Z" fill="white"/>
<path d="M89.3064 3.66699V8.61869H80.0904V15.1486H86.7785V20.15H80.0904V35.6834H79.9864C77.0877 34.5257 75.0889 31.6814 75.0889 28.3124V27.8376H75.0347V3.66699H89.3064Z" fill="white"/>
<path d="M111.32 10.0932C111.32 6.72428 113.373 3.82562 116.271 2.66797V36.0048L98.3141 16.0443V35.0009H93.3126V2.93024L111.27 22.8908L111.324 10.0932H111.32Z" fill="white"/>
<path d="M140.492 34.58C138.963 35.0548 137.331 35.3171 135.698 35.3171C133.541 35.3171 131.484 34.8965 129.539 34.0554C127.644 33.264 125.958 32.1606 124.483 30.6864C123.009 29.2122 121.851 27.5255 121.06 25.6307C120.219 23.6817 119.798 21.4162 119.798 19.2591C119.798 17.1021 120.219 14.8365 121.06 12.8875C121.851 10.9927 123.009 9.30599 124.483 7.83179C125.958 6.35759 127.644 5.24968 129.539 4.46284C131.488 3.62173 133.541 3.20117 135.698 3.20117C137.331 3.20117 138.963 3.46346 140.492 3.93828V9.31052C139.072 8.62769 137.439 8.2026 135.698 8.2026C129.693 8.2026 124.795 13.2583 124.795 19.2636C124.795 25.269 129.693 30.3247 135.698 30.3247C137.435 30.3247 139.067 29.9041 140.492 29.2168V34.589V34.58Z" fill="white"/>
</svg>
