<svg width="150" height="54" viewBox="0 0 150 54" fill="none" xmlns="http://www.w3.org/2000/svg">
<path d="M99.7999 45.7124C99.4288 45.5125 99.1432 45.2317 98.9386 44.8748C98.7387 44.5132 98.634 44.0991 98.634 43.6328C98.634 43.1664 98.7387 42.7477 98.9434 42.386C99.148 42.0243 99.4383 41.7436 99.8047 41.5485C100.171 41.3486 100.595 41.2534 101.066 41.2534C101.737 41.2534 102.317 41.4914 102.798 41.9625L102.141 42.6192C101.851 42.3432 101.504 42.2004 101.094 42.2004C100.823 42.2004 100.58 42.2575 100.366 42.3812C100.152 42.505 99.995 42.6668 99.8761 42.8857C99.7619 43.1046 99.7048 43.352 99.7048 43.6328C99.7048 43.9136 99.7619 44.1658 99.8761 44.3799C99.9903 44.5988 100.152 44.7654 100.366 44.8843C100.58 45.0033 100.818 45.0652 101.094 45.0652C101.313 45.0652 101.518 45.0271 101.718 44.9462C101.918 44.8701 102.089 44.7559 102.236 44.6083L102.86 45.3031C102.37 45.7742 101.775 46.0122 101.085 46.0122C100.595 46.0122 100.162 45.9122 99.7952 45.7124H99.7999Z" fill="white"/>
<path d="M104.393 45.722C104.022 45.5221 103.736 45.2461 103.531 44.8845C103.331 44.5228 103.227 44.104 103.227 43.6282C103.227 43.1523 103.327 42.7335 103.531 42.3718C103.731 42.0102 104.022 41.7342 104.393 41.5343C104.764 41.3344 105.192 41.2393 105.682 41.2393C106.172 41.2393 106.606 41.3392 106.977 41.5343C107.348 41.7342 107.633 42.0102 107.838 42.3718C108.038 42.7335 108.143 43.1523 108.143 43.6282C108.143 44.104 108.043 44.5228 107.838 44.8845C107.638 45.2461 107.348 45.5221 106.977 45.722C106.606 45.9219 106.172 46.017 105.682 46.017C105.192 46.017 104.759 45.9171 104.393 45.722ZM106.41 44.8892C106.62 44.7703 106.782 44.6037 106.901 44.3848C107.015 44.1659 107.072 43.9184 107.072 43.6282C107.072 43.3379 107.015 43.0904 106.901 42.8715C106.786 42.6526 106.625 42.4861 106.41 42.3671C106.196 42.2481 105.958 42.1863 105.682 42.1863C105.406 42.1863 105.168 42.2434 104.959 42.3671C104.75 42.4861 104.588 42.6526 104.474 42.8715C104.359 43.0904 104.302 43.3426 104.302 43.6282C104.302 43.9137 104.359 44.1659 104.474 44.3848C104.588 44.6037 104.75 44.7703 104.959 44.8892C105.168 45.0082 105.406 45.0701 105.682 45.0701C105.958 45.0701 106.196 45.013 106.41 44.8892Z" fill="white"/>
<path d="M112.006 41.3535H113.068V45.9124H112.111L110.046 43.0952L110.06 44.323V45.9124H108.999V41.3535H109.955L112.021 44.185L112.006 42.9667V41.3535Z" fill="white"/>
<path d="M114.795 45.8459C114.452 45.7316 114.152 45.5746 113.9 45.37L114.452 44.5943C114.857 44.9131 115.328 45.0702 115.866 45.0702C116.132 45.0702 116.346 45.0226 116.508 44.9322C116.67 44.8418 116.746 44.718 116.746 44.561C116.746 44.4135 116.67 44.2993 116.522 44.2184C116.375 44.1375 116.142 44.0756 115.818 44.0423C115.199 43.9709 114.743 43.8281 114.452 43.6045C114.162 43.3856 114.019 43.0667 114.019 42.6527C114.019 42.3767 114.095 42.1293 114.252 41.9151C114.409 41.701 114.628 41.5392 114.909 41.4202C115.19 41.3012 115.518 41.2441 115.885 41.2441C116.203 41.2441 116.513 41.2917 116.813 41.3821C117.112 41.4726 117.379 41.601 117.612 41.7676L117.112 42.5147C116.756 42.2673 116.365 42.1436 115.932 42.1436C115.666 42.1436 115.456 42.1864 115.299 42.272C115.142 42.3577 115.061 42.4767 115.061 42.6242C115.061 42.7717 115.128 42.8764 115.266 42.9573C115.404 43.0334 115.632 43.0953 115.951 43.1334C116.565 43.2047 117.027 43.357 117.331 43.5902C117.636 43.8281 117.788 44.1517 117.788 44.561C117.788 44.8465 117.707 45.0987 117.545 45.3176C117.384 45.5365 117.16 45.7078 116.87 45.8268C116.579 45.9458 116.246 46.0077 115.866 46.0077C115.485 46.0077 115.133 45.9505 114.79 45.8363L114.795 45.8459Z" fill="white"/>
<path d="M119.078 45.4603C118.716 45.0987 118.535 44.5895 118.535 43.9423V41.3535H119.601V43.9423C119.601 44.2897 119.687 44.5609 119.863 44.7608C120.039 44.9606 120.287 45.0606 120.601 45.0606C120.915 45.0606 121.153 44.9606 121.329 44.7608C121.505 44.5609 121.595 44.2897 121.595 43.9423V41.3535H122.661V43.9423C122.661 44.5942 122.48 45.0987 122.123 45.4603C121.762 45.822 121.257 46.0028 120.601 46.0028C119.944 46.0028 119.435 45.822 119.073 45.4603H119.078Z" fill="white"/>
<path d="M123.723 41.3534H124.788V44.9462H127.082V45.9075H123.723V41.3486V41.3534Z" fill="white"/>
<path d="M130.699 41.3535V42.2862H129.304V45.9124H128.238V42.2862H126.854V41.3535H130.699Z" fill="white"/>
<path d="M132.24 45.722C131.869 45.5221 131.584 45.2461 131.379 44.8845C131.179 44.5228 131.075 44.104 131.075 43.6282C131.075 43.1523 131.174 42.7335 131.379 42.3718C131.579 42.0102 131.869 41.7342 132.24 41.5343C132.612 41.3344 133.04 41.2393 133.53 41.2393C134.02 41.2393 134.453 41.3392 134.824 41.5343C135.196 41.7342 135.481 42.0102 135.686 42.3718C135.886 42.7335 135.99 43.1523 135.99 43.6282C135.99 44.104 135.89 44.5228 135.686 44.8845C135.486 45.2461 135.196 45.5221 134.824 45.722C134.453 45.9219 134.02 46.017 133.53 46.017C133.04 46.017 132.607 45.9171 132.24 45.722ZM134.258 44.8892C134.468 44.7703 134.629 44.6037 134.748 44.3848C134.863 44.1659 134.92 43.9184 134.92 43.6282C134.92 43.3379 134.863 43.0904 134.748 42.8715C134.634 42.6526 134.472 42.4861 134.258 42.3671C134.044 42.2481 133.806 42.1863 133.53 42.1863C133.254 42.1863 133.016 42.2434 132.807 42.3671C132.597 42.4861 132.436 42.6526 132.321 42.8715C132.207 43.0904 132.15 43.3426 132.15 43.6282C132.15 43.9137 132.207 44.1659 132.321 44.3848C132.436 44.6037 132.597 44.7703 132.807 44.8892C133.016 45.0082 133.254 45.0701 133.53 45.0701C133.806 45.0701 134.044 45.013 134.258 44.8892Z" fill="white"/>
<path d="M138.532 44.4038H137.913V45.9075H136.847V41.3486H139.065C139.393 41.3486 139.683 41.4105 139.931 41.539C140.178 41.6675 140.369 41.8483 140.502 42.0815C140.635 42.3147 140.702 42.5859 140.702 42.8905C140.702 43.2379 140.611 43.5329 140.43 43.7804C140.25 44.0278 139.993 44.2039 139.664 44.3086L140.954 45.9028H139.683L138.527 44.399L138.532 44.4038ZM139.464 42.4336C139.341 42.3194 139.165 42.2623 138.941 42.2623H137.908V43.5424H138.941C139.169 43.5424 139.345 43.4853 139.469 43.3759C139.588 43.2664 139.65 43.1094 139.65 42.9047C139.65 42.7001 139.588 42.5431 139.464 42.4289V42.4336Z" fill="white"/>
<path d="M141.687 41.3535H142.753V45.9124H141.687V41.3535Z" fill="white"/>
<path d="M147.402 45.9075L147.064 45.089H144.818L144.48 45.9075H143.343L145.385 41.3486H146.522L148.554 45.9075H147.402ZM145.951 42.3718L145.204 44.1706H146.688L145.951 42.3718Z" fill="white"/>
<path d="M100.595 53.3647C100.224 53.1648 99.9381 52.8841 99.7335 52.5272C99.5337 52.1655 99.429 51.7515 99.429 51.2851C99.429 50.8188 99.5336 50.4 99.7383 50.0383C99.9429 49.6767 100.233 49.3959 100.6 49.2008C100.966 49.0009 101.39 48.9058 101.861 48.9058C102.532 48.9058 103.112 49.1437 103.593 49.6148L102.936 50.2715C102.646 49.9955 102.298 49.8527 101.889 49.8527C101.618 49.8527 101.375 49.9099 101.161 50.0336C100.947 50.1573 100.79 50.3191 100.671 50.538C100.557 50.7569 100.5 51.0044 100.5 51.2851C100.5 51.5659 100.557 51.8181 100.671 52.0323C100.785 52.2512 100.947 52.4177 101.161 52.5367C101.375 52.6557 101.613 52.7175 101.889 52.7175C102.108 52.7175 102.313 52.6795 102.513 52.5986C102.712 52.5224 102.884 52.4082 103.031 52.2607L103.655 52.9555C103.165 53.4266 102.57 53.6645 101.88 53.6645C101.39 53.6645 100.957 53.5646 100.59 53.3647H100.595Z" fill="white"/>
<path d="M105.187 53.3738C104.816 53.174 104.53 52.898 104.325 52.5363C104.126 52.1747 104.021 51.7559 104.021 51.28C104.021 50.8041 104.121 50.3854 104.325 50.0237C104.525 49.662 104.816 49.386 105.187 49.1862C105.558 48.9863 105.986 48.8911 106.476 48.8911C106.967 48.8911 107.4 48.991 107.771 49.1862C108.142 49.386 108.427 49.662 108.632 50.0237C108.832 50.3854 108.937 50.8041 108.937 51.28C108.937 51.7559 108.837 52.1747 108.632 52.5363C108.432 52.898 108.142 53.174 107.771 53.3738C107.4 53.5737 106.967 53.6689 106.476 53.6689C105.986 53.6689 105.553 53.569 105.187 53.3738ZM107.204 52.5411C107.414 52.4221 107.576 52.2555 107.695 52.0366C107.809 51.8177 107.866 51.5703 107.866 51.28C107.866 50.9897 107.809 50.7423 107.695 50.5234C107.58 50.3045 107.419 50.1379 107.204 50.0189C106.99 49.9 106.752 49.8381 106.476 49.8381C106.2 49.8381 105.962 49.8952 105.753 50.0189C105.544 50.1379 105.382 50.3045 105.268 50.5234C105.153 50.7423 105.096 50.9945 105.096 51.28C105.096 51.5655 105.153 51.8177 105.268 52.0366C105.382 52.2555 105.544 52.4221 105.753 52.5411C105.962 52.66 106.2 52.7219 106.476 52.7219C106.752 52.7219 106.99 52.6648 107.204 52.5411Z" fill="white"/>
<path d="M111.478 52.0561H110.86V53.5599H109.794V49.001H112.011C112.34 49.001 112.63 49.0628 112.877 49.1913C113.125 49.3198 113.315 49.5006 113.448 49.7338C113.582 49.967 113.648 50.2382 113.648 50.5428C113.648 50.8902 113.558 51.1852 113.377 51.4327C113.196 51.6801 112.939 51.8562 112.611 51.9609L113.901 53.5551H112.63L111.474 52.0513L111.478 52.0561ZM112.411 50.086C112.287 49.9718 112.111 49.9146 111.888 49.9146H110.855V51.1948H111.888C112.116 51.1948 112.292 51.1376 112.416 51.0282C112.535 50.9187 112.597 50.7617 112.597 50.5571C112.597 50.3525 112.535 50.1954 112.411 50.0812V50.086Z" fill="white"/>
<path d="M117.736 49.2005C117.998 49.3337 118.202 49.5241 118.345 49.7715C118.488 50.019 118.559 50.3093 118.559 50.6376C118.559 50.966 118.488 51.2563 118.345 51.5037C118.202 51.7512 117.998 51.9415 117.736 52.0748C117.474 52.208 117.165 52.2746 116.813 52.2746H115.699V53.5643H114.633V49.0054H116.813C117.165 49.0054 117.469 49.072 117.736 49.2052V49.2005ZM117.298 51.1516C117.431 51.0278 117.498 50.8565 117.498 50.6424C117.498 50.4282 117.431 50.2617 117.298 50.1332C117.165 50.0095 116.989 49.9428 116.76 49.9428H115.694V51.3372H116.76C116.984 51.3372 117.165 51.2753 117.298 51.1468V51.1516Z" fill="white"/>
<path d="M120.21 53.3738C119.839 53.174 119.554 52.898 119.349 52.5363C119.149 52.1747 119.045 51.7559 119.045 51.28C119.045 50.8041 119.144 50.3854 119.349 50.0237C119.549 49.662 119.839 49.386 120.21 49.1862C120.582 48.9863 121.01 48.8911 121.5 48.8911C121.99 48.8911 122.423 48.991 122.794 49.1862C123.166 49.386 123.451 49.662 123.656 50.0237C123.856 50.3854 123.96 50.8041 123.96 51.28C123.96 51.7559 123.86 52.1747 123.656 52.5363C123.456 52.898 123.166 53.174 122.794 53.3738C122.423 53.5737 121.99 53.6689 121.5 53.6689C121.01 53.6689 120.577 53.569 120.21 53.3738ZM122.228 52.5411C122.438 52.4221 122.599 52.2555 122.718 52.0366C122.833 51.8177 122.89 51.5703 122.89 51.28C122.89 50.9897 122.833 50.7423 122.718 50.5234C122.604 50.3045 122.442 50.1379 122.228 50.0189C122.014 49.9 121.776 49.8381 121.5 49.8381C121.224 49.8381 120.986 49.8952 120.777 50.0189C120.567 50.1379 120.406 50.3045 120.291 50.5234C120.177 50.7423 120.12 50.9945 120.12 51.28C120.12 51.5655 120.177 51.8177 120.291 52.0366C120.406 52.2555 120.567 52.4221 120.777 52.5411C120.986 52.66 121.224 52.7219 121.5 52.7219C121.776 52.7219 122.014 52.6648 122.228 52.5411Z" fill="white"/>
<path d="M126.501 52.0561H125.883V53.5599H124.817V49.001H127.034C127.363 49.001 127.653 49.0628 127.901 49.1913C128.148 49.3198 128.338 49.5006 128.472 49.7338C128.605 49.967 128.671 50.2382 128.671 50.5428C128.671 50.8902 128.581 51.1852 128.4 51.4327C128.219 51.6801 127.962 51.8562 127.634 51.9609L128.924 53.5551H127.653L126.497 52.0513L126.501 52.0561ZM127.434 50.086C127.31 49.9718 127.134 49.9146 126.911 49.9146H125.878V51.1948H126.911C127.139 51.1948 127.315 51.1376 127.439 51.0282C127.558 50.9187 127.62 50.7617 127.62 50.5571C127.62 50.3525 127.558 50.1954 127.434 50.0812V50.086Z" fill="white"/>
<path d="M133.183 53.5599L132.845 52.7413H130.599L130.261 53.5599H129.124L131.165 49.001H132.302L134.334 53.5599H133.183ZM131.727 50.0241L130.98 51.8229H132.464L131.727 50.0241Z" fill="white"/>
<path d="M137.951 49.001V49.9337H136.557V53.5599H135.491V49.9337H134.106V49.001H137.951Z" fill="white"/>
<path d="M138.675 49.001H139.741V53.5599H138.675V49.001Z" fill="white"/>
<path d="M144.038 49.001H145.218L143.343 53.5599H142.215L140.34 49.001H141.52L142.134 50.5476L142.777 52.3178L143.433 50.5476L144.038 49.001Z" fill="white"/>
<path d="M148.848 53.5599L148.511 52.7413H146.264L145.927 53.5599H144.789L146.831 49.001H147.968L150 53.5599H148.848ZM147.397 50.0241L146.65 51.8229H148.135L147.397 50.0241Z" fill="white"/>
<path d="M0 13.1962H9.02735L15.4517 29.3426L12.0729 37.5039C11.7779 38.2177 10.7738 38.2224 10.4692 37.5134L0 13.1914V13.1962Z" fill="white"/>
<path d="M10.9357 0H19.6156L30.1801 26.5538C30.6417 27.7197 30.6464 29.0141 30.1896 30.18L27.2249 37.7321C26.9869 38.3365 26.1351 38.3365 25.8972 37.7321L10.9357 0Z" fill="white"/>
<path d="M30.7322 9.37498L34.1537 1.68008C34.4297 1.05668 35.3243 1.07572 35.5766 1.71339L50.3572 39.4122H40.8064L30.6465 12.5348C30.261 11.5117 30.2896 10.3743 30.7369 9.37498H30.7322Z" fill="#10648F"/>
<path d="M45.6648 10.5882L49.6907 1.48943C49.9334 0.937418 50.7233 0.956452 50.9422 1.51798L60.593 26.3016H51.2182L45.66 10.5882H45.6648Z" fill="#10648F"/>
<path d="M93.9803 3.85938V9.07021H84.282V15.9418H91.3201V21.205H84.282V37.5513H84.1725C81.1221 36.3331 79.0188 33.3398 79.0188 29.7946V29.2949H78.9617V3.85938H93.9803Z" fill="white"/>
<path d="M117.146 10.6215C117.146 7.07621 119.306 4.02586 122.357 2.80762V37.8891L103.46 16.884V36.8327H98.1967V3.08362L117.094 24.0887L117.151 10.6215H117.146Z" fill="white"/>
<path d="M147.845 36.3901C146.236 36.8898 144.519 37.1658 142.801 37.1658C140.531 37.1658 138.365 36.7232 136.319 35.8381C134.325 35.0053 132.55 33.8442 130.999 32.2928C129.448 30.7415 128.229 28.9665 127.397 26.9725C126.511 24.9215 126.069 22.5374 126.069 20.2675C126.069 17.9975 126.511 15.6134 127.397 13.5624C128.229 11.5685 129.448 9.79345 130.999 8.24209C132.55 6.69074 134.325 5.52486 136.319 4.69684C138.37 3.81171 140.531 3.36914 142.801 3.36914C144.519 3.36914 146.236 3.64515 147.845 4.14482V9.79822C146.351 9.07964 144.633 8.63232 142.801 8.63232C136.481 8.63232 131.327 13.9526 131.327 20.2722C131.327 26.5918 136.481 31.9121 142.801 31.9121C144.628 31.9121 146.346 31.4696 147.845 30.7462V36.3996V36.3901Z" fill="white"/>
</svg>
